<?xml version='1.0' encoding='utf-8'?>
<!DOCTYPE svg PUBLIC '-//W3C//DTD SVG 1.1//EN' 'http://www.w3.org/Graphics/SVG/1.1/DTD/svg11.dtd'>
<svg version="1.1" xmlns="http://www.w3.org/2000/svg" viewBox="0 0 512 512" xmlns:xlink="http://www.w3.org/1999/xlink" enable-background="new 0 0 512 512">
  <g>
    <g>
      <path d="m102.2,46.6c64.7-34.3 143.9-10.1 177.1,55.8 3.1,5.2 9.4,7.3 14.6,4.2 5.2-3.1 7.3-9.4 4.2-14.6-39.4-74.3-132.1-102.7-206.2-63.2-74.2,39.6-102.6,132.5-63.1,206.8 2.1,3.1 8,7.5 14.6,4.2 5.2-3.1 7.3-9.4 4.2-14.6-34.3-63.8-10.1-144.2 54.6-178.6z"/>
      <path d="m106,195c-8.3-15.7-10.3-33.5-5.1-50.2 5.3-17.8 16.8-31.3 32.4-39.6s33.4-10.4 50.1-5.1c16.7,5.3 31.2,16.8 38.5,33.5 3.1,5.2 9.4,7.3 14.6,4.2 5.2-3.1 7.3-9.4 4.2-14.6-10.4-20.9-29.1-36.7-51-43-22.9-7.4-45.9-5.3-66.7,6.1-41.8,22.9-58.6,75.1-35.7,118 2.1,3.1 7.9,8.2 14.6,5.3 5.1-3.1 7.2-9.3 4.1-14.6z"/>
      <path d="m499.1,382.8l-107.5-202c-10.4-19.6-34.8-27-54.3-16.6l-103.7,55.5-31.2-58.7c-9.7-18.3-32.4-25.2-50.6-15.4-18.2,9.7-25.1,32.5-15.4,50.7l61.2,115-42.9-13.1c-19.8-6-40.7,5.1-46.7,25-6,19.8 5.1,40.8 24.9,46.8l114.5,34.9 46.6,87.6c4.2,7.8 13.9,10.8 21.7,6.6l176.8-94.5c7.8-4.2 10.8-14 6.6-21.8zm-235.3,8.1c-1.3-2.4-3.4-4.1-5.9-4.9l-118.9-36.2c-8.6-2.6-13.5-11.8-10.9-20.4 2.6-8.6 11.7-13.5 20.4-10.9l68.5,20.9c8.6,2.6 16-6.5 11.8-14.4l-73.8-138.6c-4.2-8-1.2-17.9 6.7-22.1 7.9-4.3 17.8-1.2 22.1,6.7l41.1,77.3 121.9-65.3c9.5-5.1 21.4-1.5 26.5,8.1l69.5,130.6-167.9,89.8-11.1-20.6zm46.4,87.2l-24.5-46.1 167.9-89.8 24.5,46.1-167.9,89.8z"/>
    </g>
  </g>
</svg>
