<svg xmlns="http://www.w3.org/2000/svg" viewBox="0 0 20 20"><path d="M8.938 1.833q1.5 0 2.572 1.084Q12.583 4 12.583 5.542q0 1.187-.614 2.073-.615.885-1.636 1.197h-.25v-.541q.855-.354 1.344-1.094.49-.739.49-1.656 0-1.229-.875-2.125-.875-.896-2.125-.896-1.209 0-2.105.896-.895.896-.895 2.146 0 .916.5 1.656.5.74 1.333 1.052v.688q-1.125-.334-1.812-1.282-.688-.948-.688-2.114Q5.25 4 6.333 2.917q1.084-1.084 2.605-1.084Zm-.396 15.334q-.125 0-.24-.042-.114-.042-.24-.167L4.083 13l.834-.812q.125-.146.302-.157.177-.01.323.052l2.208.438V6q.021-.479.354-.823.334-.344.813-.344.479 0 .823.334.343.333.343.833v3.646h1.25l-.021-.011q-.02-.01-.041-.031l2.479 1.167q.688.333 1 1.01.312.677.188 1.427l-.5 3.375q-.042.229-.219.407-.177.177-.427.177Zm0-.667h5.25l.5-3.708q.083-.354-.021-.719-.104-.365-.479-.531l-2.23-1.042H9.417V6q0-.208-.146-.354T8.917 5.5q-.209 0-.355.146-.145.146-.145.354v7.417l-3.042-.709-.333.334Zm5.25 0h-5.25 5.25Z"/></svg>