<?xml version="1.0" encoding="UTF-8"?>
<svg version="1.1" viewBox="0 0 700 700" xmlns="http://www.w3.org/2000/svg" xmlns:xlink="http://www.w3.org/1999/xlink">
 <defs>
  <symbol id="x" overflow="visible">
   <path d="m0.03125 0h-0.03125v-0.015625-0.015625c0.0078125-0.0078125 0.019531-0.015625 0.03125-0.015625v0.015625h-0.015625v0.015625 0.015625h0.015625v-0.015625z"/>
  </symbol>
  <symbol id="c" overflow="visible">
   <path d="m0.03125-0.015625c0-0.0078125-0.0078125-0.015625-0.015625-0.015625v0.015625 0.015625h-0.015625v-0.03125h0.015625 0.015625z"/>
  </symbol>
  <symbol id="a" overflow="visible">
   <path d="m0.03125-0.015625h-0.015625v0.015625h0.015625v-0.015625 0.015625h-0.015625-0.015625v-0.015625l0.015625-0.015625c0.0078125 0 0.015625 0.0078125 0.015625 0.015625zm0 0h-0.015625v-0.015625 0.015625z"/>
  </symbol>
  <symbol id="b" overflow="visible">
   <path d="m0.015625-0.015625v0.015625l0.015625-0.015625zm0.015625 0v0.015625h-0.015625-0.015625v-0.015625h0.015625 0.015625-0.015625v-0.015625h-0.015625v0.015625-0.015625h0.015625 0.015625v0.015625z"/>
  </symbol>
  <symbol id="e" overflow="visible">
   <path d="m0.015625-0.046875v0.015625h0.015625-0.015625v0.015625 0.015625h0.015625-0.015625-0.015625v-0.015625-0.03125z"/>
  </symbol>
  <symbol id="i" overflow="visible">
   <path d="m0.03125-0.03125v-0.015625 0.046875h-0.015625-0.015625v-0.015625l0.015625-0.015625h0.015625zm-0.015625 0.03125 0.015625-0.015625h-0.015625v-0.015625 0.015625 0.015625z"/>
  </symbol>
  <symbol id="m" overflow="visible">
   <path d="m0.015625 0h0.015625v-0.015625c0-0.0078125-0.0078125-0.015625-0.015625-0.015625v0.015625 0.015625zm0-0.03125h0.015625v0.015625 0.015625h-0.015625-0.015625v-0.046875h0.015625z"/>
  </symbol>
  <symbol id="h" overflow="visible">
   <path d="m0-0.03125h0.015625v0.015625l0.015625-0.015625-0.015625 0.03125v0.015625h-0.015625v-0.015625h0.015625z"/>
  </symbol>
  <symbol id="l" overflow="visible">
   <path d="m0.03125-0.03125h-0.015625v0.015625 0.015625h0.015625v-0.015625-0.015625zm0-0.015625v0.015625c0.0078125 0 0.015625 0.0078125 0.015625 0.015625l-0.015625 0.015625h-0.03125v-0.015625-0.015625c0.0078125-0.0078125 0.019531-0.015625 0.03125-0.015625z"/>
  </symbol>
  <symbol id="w" overflow="visible">
   <path d="m0-0.046875h0.015625v0.046875h-0.015625z"/>
  </symbol>
  <symbol id="k" overflow="visible">
   <path d="m0-0.046875h0.015625v0.03125l0.015625-0.015625-0.015625 0.015625 0.015625 0.015625-0.015625-0.015625v0.015625h-0.015625z"/>
  </symbol>
  <symbol id="g" overflow="visible">
   <path d="m0.03125-0.03125v0.015625c0-0.0078125-0.0078125-0.015625-0.015625-0.015625v0.015625h0.015625v0.015625h-0.015625-0.015625v-0.015625 0.015625h0.015625v-0.015625h-0.015625v-0.015625h0.015625 0.015625z"/>
  </symbol>
  <symbol id="f" overflow="visible">
   <path d="m0.03125-0.015625v0.015625-0.015625h-0.015625v-0.015625 0.015625 0.015625h-0.015625v-0.03125h0.015625 0.015625v0.015625z"/>
  </symbol>
  <symbol id="j" overflow="visible">
   <path d="m0-0.046875h0.015625c0.0078125 0 0.015625 0.0078125 0.015625 0.015625v0.015625h-0.015625v0.015625h-0.015625zm0.015625 0.015625v0.015625h0.015625v-0.015625h-0.015625z"/>
  </symbol>
  <symbol id="d" overflow="visible">
   <path d="m0.015625-0.03125v0.015625 0.015625l0.015625-0.015625h-0.015625v-0.015625zm0 0c0.0078125 0 0.015625 0.0078125 0.015625 0.015625v0.015625h-0.015625-0.015625v-0.015625l0.015625-0.015625z"/>
  </symbol>
  <symbol id="v" overflow="visible">
   <path d="m0-0.03125h0.015625v0.015625l0.015625-0.015625v0.03125h-0.015625z"/>
  </symbol>
  <symbol id="u" overflow="visible">
   <path d="m0-0.03125h0.015625v0.03125h-0.015625zm0-0.015625h0.015625v0.015625h-0.015625z"/>
  </symbol>
  <symbol id="t" overflow="visible">
   <path d="m0.03125-0.046875v0.015625h-0.015625 0.015625-0.015625v0.03125h-0.015625v-0.03125l0.015625-0.015625z"/>
  </symbol>
  <symbol id="s" overflow="visible">
   <path d="m0.03125-0.03125h0.015625v0.015625 0.015625-0.015625-0.015625c-0.011719 0-0.015625 0.0078125-0.015625 0.015625v0.015625-0.015625h-0.015625v-0.015625 0.015625 0.015625h-0.015625v-0.03125h0.015625 0.015625z"/>
  </symbol>
  <symbol id="r" overflow="visible">
   <path d="m0.03125-0.015625v0.015625-0.015625h-0.015625v-0.015625 0.015625 0.015625h-0.015625v-0.046875h0.015625v0.015625h0.015625v0.015625z"/>
  </symbol>
  <symbol id="q" overflow="visible">
   <path d="m0-0.046875h0.015625l0.015625 0.03125v-0.03125h0.015625v0.046875h-0.015625l-0.015625-0.03125v0.03125h-0.015625z"/>
  </symbol>
  <symbol id="p" overflow="visible">
   <path d="m0-0.015625v-0.015625h0.015625v0.015625 0.015625l0.015625-0.015625v-0.015625 0.03125h-0.015625-0.015625v-0.015625z"/>
  </symbol>
  <symbol id="o" overflow="visible">
   <path d="m0-0.03125h0.015625v0.03125c0 0.0078125-0.0078125 0.015625-0.015625 0.015625zm0-0.015625h0.015625v0.015625h-0.015625z"/>
  </symbol>
  <symbol id="n" overflow="visible">
   <path d="m0.03125-0.03125v0.015625c0-0.0078125-0.0078125-0.015625-0.015625-0.015625v0.015625 0.015625h0.015625v-0.015625 0.015625h-0.015625-0.015625v-0.015625l0.015625-0.015625h0.015625z"/>
  </symbol>
 </defs>
 <g>
  <path d="m524.41 420.92c-2.1523-32.602-1.1523-52.449-0.34766-68.441 1.5352-30.406 2.3516-46.582-21.629-112.54-4.9062-13.473-10.023-25.613-17.941-32.246-7.5703-6.3516-18.176-7.75-34.562-0.50391l-2.4648 1.0977-1.457-2.2734c-1.7812-2.7773-3.168-5.332-4.4453-7.6602-3.7188-6.8203-6.3516-11.648-17.414-16.723-12.488-5.7227-19.105-2.9688-27.16 0.39062-2.9219 1.2227-6.0039 2.4961-9.5977 3.5742l-2.1289 0.62891-1.3086-1.8047c-2.8242-3.8633-5.1172-6.9453-8.2539-8.9492-3.125-2.0039-7.3711-3.1367-14.301-3.2812-9.1953-0.19141-13.957 2.6992-19.273 5.9375-2.7656 1.6797-5.6797 3.4492-9.3281 5.0078l-3.293 1.3984-0.98438-3.4492c-1.2422-4.3672-10.328-18-20.676-32.391-13.531-18.828-29.008-38.641-32.09-40.926-8.457-6.3047-17.574-7.918-25.445-6.0352-4.7148 1.1328-9.0039 3.5156-12.453 6.9102-3.4727 3.3945-6.0938 7.8047-7.4609 12.969-2.5664 9.6875-0.71875 22.062 8.1758 35.539 5.3633 8.1211 10.328 14.762 14.887 20.875 12.801 17.148 22.578 30.25 31.664 62.719 4.1328 14.762 7.1797 24.551 9.4961 31.965 6.6211 21.246 7.2344 23.219 11.355 71.637l0.35938 4.2227-4.1445-0.875c-6.0938-1.2773-10.672-3.5859-14.402-6.6992-3.6836-3.0703-6.4531-6.8555-8.9805-11.199l-0.125-0.20312-0.10156-0.28125c-0.69531-1.8242-0.53906-5.1406-0.33594-9.6562 0.19141-4.2344 0.4375-9.6328 0.125-15.355-0.95312-17.539-7.3789-38.641-38.672-37.598-3.0117 4.4141-6.5742 12.051-10 20.598-4.75 11.84-9.207 25.324-11.672 34.598-4.3008 16.07 3.5273 34.094 10.215 49.516 1.6445 3.7852 3.2266 7.4258 4.5234 10.773 17.348 44.656 28.727 49.145 65.23 63.582 5.8789 2.3203 12.398 4.8945 20.059 8.0859 5.7344 2.3867 10.258 4.0781 14.09 5.5 17.91 6.6875 21.594 8.0625 32.535 32.57 1.668 3.7305 3.0352 7.043 4.2578 10.012 6.6875 16.32 8.625 21.023 36.836 23.082 22.938 1.6797 53.996 1.0312 82.086-3.1133 21.57-3.1797 41.293-8.3984 54.008-16.152 0.89453-9.8125-3.7188-26.477-8.4102-43.422-4.0977-14.816-8.2539-29.859-9.0273-41.418zm5.9453-68.141c-0.79687 15.812-1.7812 35.449 0.35938 67.75 0.71875 10.922 4.7812 25.637 8.8047 40.129 5.0977 18.426 10.102 36.535 8.3906 47.453l-0.22266 1.3906-1.1875 0.77344c-13.52 8.7344-34.688 14.48-57.734 17.887-28.547 4.2109-60.121 4.8594-83.441 3.1602-32.121-2.3516-34.383-7.8633-42.234-26.98-1.1992-2.9219-2.543-6.1953-4.168-9.8438-9.8789-22.098-13.137-23.32-28.984-29.23-4.0195-1.5-8.793-3.2695-14.312-5.5781-7.168-2.9805-13.887-5.6445-19.957-8.043-38.438-15.188-50.434-19.926-68.789-67.176-1.3203-3.4062-2.832-6.8984-4.4258-10.551-7.1016-16.363-15.391-35.469-10.539-53.648 2.5195-9.4297 7.0664-23.207 11.93-35.301 3.9414-9.832 8.1328-18.625 11.68-23.262l0.88672-1.1523 1.457-0.078126c37.98-2.0625 45.684 22.848 46.805 43.512 0.32422 5.9922 0.066406 11.582-0.13281 15.961-0.15625 3.4609-0.26953 6.082-0.11328 6.9648 2.1602 3.6523 4.4688 6.7969 7.4141 9.25 2.0703 1.7266 4.4922 3.1484 7.4492 4.1992-3.7188-43.391-4.4805-45.832-10.695-65.766-2.2852-7.3477-5.3086-17.035-9.543-32.176-8.7461-31.27-18.234-43.98-30.656-60.613-4.5703-6.125-9.5312-12.777-15.074-21.168-10.012-15.152-12.008-29.332-9.0273-40.633 1.668-6.293 4.8828-11.68 9.1406-15.859 4.2656-4.1758 9.5742-7.125 15.41-8.5234 9.6094-2.3086 20.598-0.41406 30.664 7.0898 3.5039 2.5977 19.621 23.07 33.453 42.301 8.8828 12.355 16.91 24.328 20.227 30.98 2.0703-1.0547 3.9102-2.1602 5.6797-3.2461 6.1484-3.7305 11.637-7.0664 22.656-6.8438 8.2539 0.16797 13.496 1.6445 17.586 4.2578 3.4844 2.2383 5.9258 5.1523 8.5781 8.7266 2.4648-0.83984 4.7266-1.7812 6.875-2.6758 9.4531-3.9414 17.203-7.1797 32.211-0.29297 12.969 5.9453 16.016 11.523 20.328 19.434 0.83984 1.5469 1.7461 3.2031 2.8242 5.0078 17.641-7.1562 29.625-5.0391 38.617 2.4961 9.0703 7.6055 14.605 20.586 19.824 34.957 24.414 67.145 23.574 83.754 21.996 114.98z"/>
  <path d="m169.51 182.37c3.875 6.5742 7.7617 12.164 11.582 16.879 4.1094 5.0625 8.1406 9.1172 12.051 12.309 11.48 9.375 21.492 11.176 28.301 8.7148 2.5195-0.90625 4.5938-2.418 6.1133-4.3359 1.5352-1.9258 2.5195-4.2656 2.8555-6.832 0.875-6.6211-2.4648-14.773-11.68-21.637-9.6445-7.1797-17.672-18.367-22.344-30.656-4.4336-11.66-5.8594-24.371-2.7539-35.684 4.3242-15.824 14.211-30.824 28.191-40.578 12.32-8.6133 27.789-13.16 45.395-10.684 17.406 2.4531 28.887 8.7812 37.027 16.566 8.0977 7.7266 12.77 16.754 16.699 24.785 5.4648 11.168 13.383 16.262 20.43 16.688 2.5312 0.14453 4.9492-0.30078 7.0664-1.3008 2.082-0.98438 3.8984-2.5078 5.2852-4.5039 3.6641-5.2656 4.2773-13.82-0.97266-24.641-23.328-48.035-60.301-65.656-95.906-63.594-15.488 0.90625-30.742 5.5117-44.531 12.945-13.809 7.4492-26.117 17.719-35.695 29.938-22.223 28.336-29.77 67.223-7.1133 105.62zm6.6992 20.855c-4.043-4.9727-8.1094-10.832-12.129-17.652-24.18-40.969-16.129-82.465 7.5703-112.7 10.137-12.926 23.129-23.766 37.676-31.617 14.57-7.8633 30.734-12.734 47.176-13.688 37.957-2.1953 77.281 16.398 101.93 67.156 6.3945 13.148 5.332 23.992 0.49219 30.969-2.0273 2.9102-4.7148 5.1523-7.8164 6.6094-3.0703 1.4453-6.5195 2.1055-10.102 1.8945-9.0938-0.54688-19.105-6.7305-25.715-20.215-3.6836-7.5391-8.043-15.973-15.391-22.98-7.293-6.9648-17.664-12.656-33.543-14.887-15.902-2.2383-29.836 1.8477-40.926 9.5859-12.746 8.9023-21.762 22.602-25.727 37.082-2.7227 9.9453-1.4102 21.293 2.5859 31.809 4.2578 11.188 11.523 21.348 20.195 27.809 11.289 8.4102 15.32 18.84 14.18 27.52-0.49219 3.7305-1.9258 7.1328-4.168 9.9453-2.2305 2.8125-5.2539 5.0195-8.9023 6.3398-8.6914 3.1367-20.977 1.2227-34.43-9.7656-4.2344-3.4492-8.5781-7.8164-12.957-13.215z"/>
  <use x="70" y="560.167969" xlink:href="#x"/>
  <use x="70.042969" y="560.167969" xlink:href="#c"/>
  <use x="70.070312" y="560.167969" xlink:href="#a"/>
  <use x="70.105469" y="560.167969" xlink:href="#b"/>
  <use x="70.144531" y="560.167969" xlink:href="#e"/>
  <use x="70.171875" y="560.167969" xlink:href="#a"/>
  <use x="70.210938" y="560.167969" xlink:href="#i"/>
  <use x="70.269531" y="560.167969" xlink:href="#m"/>
  <use x="70.308594" y="560.167969" xlink:href="#h"/>
  <use x="70.363281" y="560.167969" xlink:href="#l"/>
  <use x="70.414063" y="560.167969" xlink:href="#w"/>
  <use x="70.433594" y="560.167969" xlink:href="#a"/>
  <use x="70.46875" y="560.167969" xlink:href="#k"/>
  <use x="70.507812" y="560.167969" xlink:href="#g"/>
  <use x="70.539062" y="560.167969" xlink:href="#b"/>
  <use x="70.578125" y="560.167969" xlink:href="#f"/>
  <use x="70.617188" y="560.167969" xlink:href="#i"/>
  <use x="70.65625" y="560.167969" xlink:href="#c"/>
  <use x="70.707031" y="560.167969" xlink:href="#j"/>
  <use x="70.746094" y="560.167969" xlink:href="#b"/>
  <use x="70.785156" y="560.167969" xlink:href="#f"/>
  <use x="70.824219" y="560.167969" xlink:href="#b"/>
  <use x="70.863281" y="560.167969" xlink:href="#g"/>
  <use x="70.894531" y="560.167969" xlink:href="#d"/>
  <use x="70.933594" y="560.167969" xlink:href="#v"/>
  <use x="70.96875" y="560.167969" xlink:href="#g"/>
  <use x="71.003906" y="560.167969" xlink:href="#k"/>
  <use x="71.039062" y="560.167969" xlink:href="#h"/>
  <use x="71.078125" y="560.167969" xlink:href="#u"/>
  <use x="70" y="560.222656" xlink:href="#t"/>
  <use x="70.023438" y="560.222656" xlink:href="#c"/>
  <use x="70.050781" y="560.222656" xlink:href="#d"/>
  <use x="70.089844" y="560.222656" xlink:href="#s"/>
  <use x="70.167969" y="560.222656" xlink:href="#e"/>
  <use x="70.195313" y="560.222656" xlink:href="#r"/>
  <use x="70.234375" y="560.222656" xlink:href="#a"/>
  <use x="70.292969" y="560.222656" xlink:href="#q"/>
  <use x="70.339844" y="560.222656" xlink:href="#d"/>
  <use x="70.378906" y="560.222656" xlink:href="#p"/>
  <use x="70.417969" y="560.222656" xlink:href="#f"/>
  <use x="70.476562" y="560.222656" xlink:href="#j"/>
  <use x="70.519531" y="560.222656" xlink:href="#c"/>
  <use x="70.546875" y="560.222656" xlink:href="#d"/>
  <use x="70.585938" y="560.222656" xlink:href="#o"/>
  <use x="70.601562" y="560.222656" xlink:href="#a"/>
  <use x="70.640625" y="560.222656" xlink:href="#n"/>
  <use x="70.675781" y="560.222656" xlink:href="#e"/>
 </g>
</svg>
